<?xml version="1.0" encoding="iso-8859-1"?>
<!-- Generator: Adobe Illustrator 19.0.0, SVG Export Plug-In . SVG Version: 6.00 Build 0)  -->
<svg version="1.1" id="Layer_1" xmlns="http://www.w3.org/2000/svg" xmlns:xlink="http://www.w3.org/1999/xlink" x="0px" y="0px"
	 viewBox="0 0 512 512" style="enable-background:new 0 0 512 512;" xml:space="preserve">
<g>
	<g fill="#ffff">
		<path d="M401.067,145.067H358.4V102.4C358.4,45.935,312.465,0,256,0S153.6,45.935,153.6,102.4v42.667h-42.667
			c-4.71,0-8.533,3.823-8.533,8.533v349.867c0,4.71,3.823,8.533,8.533,8.533h290.133c4.71,0,8.533-3.823,8.533-8.533V153.6
			C409.6,148.89,405.777,145.067,401.067,145.067z M341.333,145.067H170.667V102.4c0-47.053,38.281-85.333,85.333-85.333
			s85.333,38.281,85.333,85.333V145.067z"/>
	</g>
</g>
<g>
</g>
<g>
</g>
<g>
</g>
<g>
</g>
<g>
</g>
<g>
</g>
<g>
</g>
<g>
</g>
<g>
</g>
<g>
</g>
<g>
</g>
<g>
</g>
<g>
</g>
<g>
</g>
<g>
</g>
</svg>
