<?xml version="1.0" encoding="iso-8859-1"?>
<!-- Generator: Adobe Illustrator 19.0.0, SVG Export Plug-In . SVG Version: 6.00 Build 0)  -->
<svg version="1.1" id="Layer_1" xmlns="http://www.w3.org/2000/svg" xmlns:xlink="http://www.w3.org/1999/xlink" x="0px" y="0px"
	 viewBox="0 0 206.816 206.816" style="enable-background:new 0 0 206.816 206.816;" xml:space="preserve">
<g>
	<g>
		<g>
			<path d="M188.97,26.744H17.847C8.006,26.744,0,34.755,0,44.607V94.46c0,9.851,8.006,17.864,17.847,17.864H188.97
				c9.841,0,17.846-8.013,17.846-17.864V44.607C206.817,34.755,198.811,26.744,188.97,26.744z M199.685,94.458
				c0,5.916-4.807,10.732-10.715,10.732H17.847c-5.908,0-10.715-4.816-10.715-10.732V44.607c0-5.916,4.807-10.732,10.715-10.732
				H188.97c5.908,0,10.715,4.816,10.715,10.732V94.458z"/>
			<rect x="35.658" y="87.362" width="131.986" height="7.132"/>
			<rect x="21.395" y="76.664" width="164.027" height="7.132"/>
			<path d="M178.29,158.677c-1.969,0-3.566,1.595-3.566,3.566c0,5.899-4.799,10.697-10.697,10.697
				c-5.899,0-10.697-4.799-10.697-10.697V123.02h-7.132v39.224c0,9.83,7.999,17.829,17.829,17.829s17.829-7.999,17.829-17.829
				C181.856,160.273,180.259,158.677,178.29,158.677z"/>
			<path d="M127.324,141.893c-1.393-1.393-3.649-1.393-5.042,0l-6.087,6.087h-2.746c-1.077-3.021-3.454-5.398-6.474-6.474v-2.746
				l6.087-6.087c1.393-1.393,1.393-3.649,0-5.042c-1.393-1.393-3.649-1.393-5.042,0l-4.61,4.61l-4.611-4.611
				c-1.393-1.393-3.649-1.393-5.042,0c-1.393,1.393-1.393,3.649,0,5.042l6.087,6.087v2.746c-3.021,1.077-5.398,3.454-6.474,6.474
				h-2.746l-6.087-6.087c-1.393-1.393-3.649-1.393-5.042,0s-1.393,3.649,0,5.042l4.61,4.61l-4.611,4.611
				c-1.393,1.393-1.393,3.649,0,5.042c0.697,0.696,1.609,1.044,2.521,1.044s1.825-0.348,2.521-1.045l6.087-6.087h2.747
				c1.077,3.021,3.453,5.397,6.474,6.474v2.747l-6.087,6.087c-1.393,1.393-1.393,3.649,0,5.042c1.393,1.393,3.649,1.393,5.042,0
				l4.61-4.611l4.611,4.611c0.696,0.696,1.609,1.044,2.521,1.044s1.825-0.348,2.521-1.045c1.393-1.393,1.393-3.649,0-5.042
				l-6.087-6.087v-2.746c3.021-1.077,5.398-3.454,6.474-6.474h2.746l6.087,6.087c0.697,0.696,1.609,1.045,2.521,1.045
				c0.912,0,1.825-0.348,2.521-1.045c1.393-1.393,1.393-3.649,0-5.042l-4.61-4.61l4.611-4.611
				C128.717,145.542,128.717,143.286,127.324,141.893z M103.408,155.112c-1.966,0-3.566-1.598-3.566-3.566
				c0-1.968,1.6-3.566,3.566-3.566s3.566,1.598,3.566,3.566C106.974,153.515,105.374,155.112,103.408,155.112z"/>
			<path d="M57.053,162.244c0,5.899-4.799,10.697-10.697,10.697s-10.697-4.799-10.697-10.697c0-1.971-1.597-3.566-3.566-3.566
				s-3.566,1.595-3.566,3.566c0,9.83,7.999,17.829,17.829,17.829s17.829-7.999,17.829-17.829V123.02h-7.132V162.244z"/>
		</g>
	</g>
</g>
<g>
</g>
<g>
</g>
<g>
</g>
<g>
</g>
<g>
</g>
<g>
</g>
<g>
</g>
<g>
</g>
<g>
</g>
<g>
</g>
<g>
</g>
<g>
</g>
<g>
</g>
<g>
</g>
<g>
</g>
</svg>
