<?xml version="1.0" encoding="iso-8859-1"?>
<!-- Generator: Adobe Illustrator 17.1.0, SVG Export Plug-In . SVG Version: 6.00 Build 0)  -->
<!DOCTYPE svg PUBLIC "-//W3C//DTD SVG 1.1//EN" "http://www.w3.org/Graphics/SVG/1.1/DTD/svg11.dtd">
<svg version="1.1" id="Capa_1" xmlns="http://www.w3.org/2000/svg" xmlns:xlink="http://www.w3.org/1999/xlink" x="0px" y="0px"
	 viewBox="0 0 374.439 374.439" style="enable-background:new 0 0 374.439 374.439;" xml:space="preserve">

<g fill="#ffff">
<path d="M187.22,0c-48.747,0-88.405,39.659-88.405,88.406c0,33.237,18.44,62.244,45.623,77.34v12.472c0,4.411,3.589,8,8,8h7.521
	v133.829c0,7.72,6.28,14,14,14h2.5c2.206,0,4,1.794,4,4v9.277c0,2.206-1.794,4-4,4h-2.5c-7.851,0-14,5.076-14,11.557
	s6.149,11.558,14,11.558h26.521c7.72,0,14-6.28,14-14v-38.307c0-7.72-6.28-14-14-14h-2.5c-2.206,0-4-1.794-4-4v-9.276
	c0-2.206,1.794-4,4-4h2.5c7.72,0,14-6.28,14-14v-5.915c0-7.72-6.28-14-14-14h-2.5c-2.206,0-4-1.794-4-4v-8.276c0-2.206,1.794-4,4-4
	h2.5c7.72,0,14-6.28,14-14v-40.446h7.521c4.411,0,8-3.589,8-8v-12.472c27.183-15.097,45.623-44.104,45.623-77.34
	C275.625,39.659,235.967,0,187.22,0z M187.22,94.877c-18.87,0-34.168-15.297-34.168-34.168s15.297-34.168,34.168-34.168
	s34.168,15.297,34.168,34.168S206.09,94.877,187.22,94.877z"/>
</g>
</svg>
